<svg id="Capa_1" data-name="Capa 1" xmlns="http://www.w3.org/2000/svg" viewBox="0 0 1920 1414"><defs><style>.cls-1{fill:#ecf4ff;}.cls-2{fill:#fff;}</style></defs><rect class="cls-1" width="1920" height="1414"/><path class="cls-2" d="M537,255H378.14s11.64-47.71,52.72-47.71c30.45,0,46.25,19.25,52.4,29.23,12-4.7,37.85-10.4,53.74,18.48"/><path class="cls-2" d="M739.56,292.36a42.81,42.81,0,0,1,21.49,5.79c12.14-21.17,34.54-35.42,60.23-35.42A69.34,69.34,0,0,1,879,294c6.64-22.75,27.2-39.33,51.56-39.33,27.65,0,50.4,21.36,53.46,48.85a42.47,42.47,0,0,1,6.81-.6A43.72,43.72,0,0,1,1029.67,327H696.91C701.46,307.15,718.8,292.36,739.56,292.36Z"/></svg>