<svg id="Capa_1" data-name="Capa 1" xmlns="http://www.w3.org/2000/svg" xmlns:xlink="http://www.w3.org/1999/xlink" viewBox="0 0 1402.63 1227"><defs><style>.cls-1{fill:#edbba0;}.cls-2{fill:#f6f7fa;}.cls-3{fill:#c7dbf5;}.cls-4{fill:#84aad7;}.cls-5{fill:#344b7e;}.cls-6{fill:#dae6f5;}.cls-7{fill:#fff;}.cls-8{fill:#6cbeca;}.cls-9{fill:#589bad;}.cls-10{fill:#cedded;}.cls-11{fill:#279aff;}.cls-12{fill:#688bcf;}.cls-13{fill:#f2d279;}.cls-14{fill:#27222e;}.cls-15{fill:#20375e;}.cls-16{fill:#182543;}.cls-17{fill:#ebb197;}.cls-18{fill:#161616;}.cls-19{fill:#1e3248;}.cls-20{fill:#e5a7a8;}.cls-21{fill:#e9c66f;}.cls-22{clip-path:url(#clip-path);}.cls-23{fill:#98b6ee;}.cls-24{clip-path:url(#clip-path-2);}</style><clipPath id="clip-path"><path class="cls-1" d="M643.06,257.19a18,18,0,1,0,2.33-25.31A18,18,0,0,0,643.06,257.19Z"/></clipPath><clipPath id="clip-path-2"><path class="cls-1" d="M304.07,833.43a18.13,18.13,0,1,1-14.92-20.85A18.14,18.14,0,0,1,304.07,833.43Z"/></clipPath></defs><path class="cls-2" d="M788,0S461.32,67.45,480.56,381.8,396.29,756.42,244.49,826.45C98.13,894-23,990.66,3.73,1227h1398.9V0Z"/><path class="cls-3" d="M322.59,799.78H1046a0,0,0,0,1,0,0v62.14A10.94,10.94,0,0,1,1035,872.86H333.53a10.94,10.94,0,0,1-10.94-10.94V799.78A0,0,0,0,1,322.59,799.78Z"/><rect class="cls-4" x="611.48" y="872.86" width="148.45" height="63.95"/><path class="cls-5" d="M332.7,378.25h703.14A10.11,10.11,0,0,1,1046,388.36V801a0,0,0,0,1,0,0H322.59a0,0,0,0,1,0,0V388.36A10.11,10.11,0,0,1,332.7,378.25Z"/><rect class="cls-6" x="351.97" y="408.66" width="669.11" height="366.2"/><path class="cls-7" d="M700.61,833.05a16.34,16.34,0,1,1-16.34-16.34A16.35,16.35,0,0,1,700.61,833.05Z"/><path class="cls-7" d="M653.89,442H977a3.07,3.07,0,0,1,3.07,3.07V735A3.07,3.07,0,0,1,977,738H653.89a3.07,3.07,0,0,1-3.07-3.07V445.09A3.08,3.08,0,0,1,653.89,442Z"/><rect class="cls-7" x="396.37" y="578.4" width="220.58" height="159.64" rx="3.07"/><path class="cls-8" d="M1127.46,656.63h-.09c10.83-11.32,5.74-23.81,3.78-27.62v0c-.38-.73-.65-1.17-.65-1.17l.09,0A45.51,45.51,0,0,1,1139,575c7.58-10,1.84-23.38,1.84-23.38h0a32.25,32.25,0,1,1,60.78,0h0S1195.92,565,1203.5,575a45.49,45.49,0,0,1,8.42,52.82h0l-.14.23c-.26.51-.52,1-.8,1.5-2,4.19-5.92,15.37,3,25.84.27.32.56.64.82,1,.09.09.15.18.23.27h0a56.15,56.15,0,1,1-87.58,0Z"/><path class="cls-9" d="M1154.74,686.93l13.76,13.6V652.72L1151.61,636a2.23,2.23,0,1,1,3.13-3.17l13.76,13.6v-66a2.23,2.23,0,0,1,4.46,0v39.74L1186.33,607a2.23,2.23,0,1,1,3.15,3.16L1173,626.53v48l14.78-14.93a2.23,2.23,0,1,1,3.17,3.14l-18,18.13V808.27a2.23,2.23,0,0,1-4.46,0V706.81l-16.89-16.71a2.23,2.23,0,0,1,3.13-3.17Z"/><path class="cls-10" d="M1224.08,812.51h-73.67a2.48,2.48,0,0,1,0-5h73.67a2.48,2.48,0,0,1,0,5Z"/><rect class="cls-6" x="421.47" y="681.8" width="170.21" height="9.55" rx="1.04"/><rect class="cls-6" x="421.47" y="704.23" width="100.94" height="9.55" rx="1.04"/><circle class="cls-6" cx="446.15" cy="627.15" r="30.32" transform="translate(-229.95 259.39) rotate(-26.03)"/><path class="cls-10" d="M1139.53,963.28H239.84a2.21,2.21,0,0,1,0-4.42h899.69a2.21,2.21,0,0,1,0,4.42Z"/><rect class="cls-11" x="824.94" y="600.06" width="109.71" height="109.71" rx="4.52"/><rect class="cls-12" x="744.59" y="1009.31" width="115.94" height="53.36" rx="3.24"/><rect class="cls-11" x="744.59" y="995.09" width="115.94" height="53.36" rx="3.24"/><path class="cls-1" d="M891.8,683.69A10.24,10.24,0,0,1,901.71,694a9.76,9.76,0,0,1-9.82,10,10.24,10.24,0,0,1-9.9-10.28A9.76,9.76,0,0,1,891.8,683.69Z"/><path class="cls-1" d="M1079,756.83a8.38,8.38,0,0,0-12.39,0,9.79,9.79,0,0,0-.58,13.2,8.38,8.38,0,0,0,12.39,0A9.79,9.79,0,0,0,1079,756.83Z"/><path class="cls-13" d="M1035.17,796.09l-32-27.53a7.32,7.32,0,0,0-10.93,3.4A10.51,10.51,0,0,0,996,784.74l32,27.53a14.58,14.58,0,0,0,19.51-2.81L1074.2,776l-12.88-12.51Z"/><polygon class="cls-1" points="961.53 1012.69 974.4 1012.21 974.21 989.57 961.12 990.15 961.53 1012.69"/><path class="cls-14" d="M940.61,1023.26l34-.39-.21-14.91-20.52.22c-7.42.07-13.37,6.83-13.3,15.08Z"/><polygon class="cls-1" points="1018.79 1012.69 1005.91 1012.21 1003.22 989.57 1016.31 990.15 1018.79 1012.69"/><path class="cls-14" d="M1039.71,1023.26l-32.82-.4-1.48-14.9,21,.22c7.42.07,13.37,6.83,13.3,15.08Z"/><polygon class="cls-15" points="960.69 836.8 983.04 835.96 985.37 835.88 1007.72 835.04 1008 867.75 962.38 869.45 960.69 836.8"/><path class="cls-15" d="M1001.48,1000.38l20.31-.14L1011.1,916l-3.38-81-21.56,3.53,2.92,78.23a12.38,12.38,0,0,0,.23,2.65Z"/><path class="cls-15" d="M957.05,999.42l19.35.16-2.86-80.21,10.81-80.15-23.66-2.42L951.56,918a11.61,11.61,0,0,0,0,2.43Z"/><rect class="cls-1" x="977.81" y="754.08" width="13.16" height="17.68"/><path class="cls-1" d="M971.29,743.45a4.38,4.38,0,1,1-4.38-4.38A4.38,4.38,0,0,1,971.29,743.45Z"/><path class="cls-1" d="M1006.45,743.45a4.38,4.38,0,1,1-4.38-4.38A4.38,4.38,0,0,1,1006.45,743.45Z"/><path class="cls-16" d="M1002.46,739.68a18,18,0,1,1-18-18A18,18,0,0,1,1002.46,739.68Z"/><path class="cls-13" d="M1007.76,839h-47.5l-1.83-55.85c0-9.36,5.83-16.95,14.61-16.95H995c8.79,0,14.61,7.59,14.61,16.95Z"/><path class="cls-13" d="M961.16,786.68l-35.66-37c-.17-.18-.33-.36-.49-.55l-35-42.3L905,694.51l34.75,42,35.4,36.69Z"/><polygon class="cls-1" points="763.43 431.17 775.96 430.7 770.57 408.66 757.82 409.23 763.43 431.17"/><path class="cls-14" d="M743.06,441.46l33.13-.38-.2-14.52-20,.21c-7.22.08-13,6.65-13,14.69Z"/><polygon class="cls-17" points="704.86 365.26 717.38 364.8 710.4 345.79 697.65 346.36 704.86 365.26"/><path class="cls-18" d="M685.41,378.59l33.14-.38-.21-14.52-20,.21c-7.22.08-13,6.65-13,14.69Z"/><path class="cls-19" d="M771.14,291.08l-83.55,26.07,7.11-16.85,24,55.36-21.41,1.26L671.11,310.2a12.28,12.28,0,0,1,5.8-16.23l1.3-.63,78.86-37.95Z"/><path class="cls-20" d="M613.64,330.87a8.17,8.17,0,0,0-12.06,0A9.55,9.55,0,0,0,601,343.7a8.16,8.16,0,0,0,12.06,0A9.55,9.55,0,0,0,613.64,330.87Z"/><path class="cls-21" d="M619.11,341.16l-10.58-15.68,44.84-30.25L683,245.81l16.21,9.73L668.5,306.75a9.38,9.38,0,0,1-2.81,3Z"/><polygon class="cls-1" points="671.81 245.8 682.07 245.95 685.41 259.44 666.07 256.3 671.81 245.8"/><path class="cls-1" d="M637.05,250.52l2.93-3.43,4.53,3.86-3.17,2.64-3.16-.29A1.69,1.69,0,0,1,637.05,250.52Z"/><path class="cls-1" d="M643.06,257.19a18,18,0,1,0,2.33-25.31A18,18,0,0,0,643.06,257.19Z"/><g class="cls-22"><polygon class="cls-16" points="641.38 228 679.2 257 673.07 226.12 641.38 228"/></g><path class="cls-1" d="M660,245.17a5,5,0,1,0,.65-7.09A5,5,0,0,0,660,245.17Z"/><path class="cls-13" d="M742,242.74l.37,37.67-53.69,8.37L678.47,245.9l4.38-1.92a44.34,44.34,0,0,1,26.07-3l8.41.74Z"/><path class="cls-15" d="M742.4,280.41,780,283v-3.65a36.5,36.5,0,0,0-38-36.57h0Z"/><path class="cls-15" d="M780,283l-26.19,55.21.29-7.15,19.35,88-20.32.24L729.64,337.2a10.4,10.4,0,0,1-.17-5.07l.46-2.08,12.68-57.72Z"/><path class="cls-7" d="M723.06,402.11l-275-52.63a2.63,2.63,0,0,1-2.08-3.07l9.22-48.16a2.61,2.61,0,0,1,3.07-2.08l275,52.62a2.63,2.63,0,0,1,2.08,3.07L726.13,400A2.62,2.62,0,0,1,723.06,402.11Z"/><path class="cls-23" d="M715.79,386l-6.11-9.86a12.78,12.78,0,1,0-3.37,2.3l6,9.71Zm-6.34-17.46a8.69,8.69,0,1,1-6.9-10.17A8.7,8.7,0,0,1,709.45,368.53Z"/><path class="cls-1" d="M667,369.64a8.16,8.16,0,0,0-12.06,0,9.55,9.55,0,0,0-.57,12.86,8.16,8.16,0,0,0,12.06,0A9.53,9.53,0,0,0,667,369.64Z"/><path class="cls-13" d="M672.55,374.45,657,363.76l34.35-50.1-9-52.44L700.91,258l9.69,56.23a9.46,9.46,0,0,1-1.52,6.95Z"/><path class="cls-3" d="M823.44,958.22H545.27a21.41,21.41,0,0,1,21.41-21.41H802a21.41,21.41,0,0,1,21.41,21.41Z"/><path class="cls-1" d="M365.88,1058.78c0-1-2.43-26.78-2.43-26.78l13.36-2.68,2.6,26.76Z"/><path class="cls-18" d="M404.31,1056.92,367,1064.56l-2.3-11.45,25.74-5.28a11.7,11.7,0,0,1,13.83,9.09Z"/><path class="cls-19" d="M316.1,913.91l52.44,40.24,1.65,1.27A12.33,12.33,0,0,1,375,964.1l6.4,73.75-18.61,2.75-12.45-75.76,6.41,10-62.06-26Z"/><path class="cls-21" d="M282.57,938l45.21-16.08A7.15,7.15,0,0,0,332.5,913L313.31,851,277.2,862.21A24.57,24.57,0,0,0,261,892.94Z"/><path class="cls-11" d="M418.74,922.41l-89.46,22.5a4.14,4.14,0,0,1-5-3l-22.5-89.46a4.13,4.13,0,0,1,3-5l89.46-22.5a4.13,4.13,0,0,1,5,3l22.5,89.47A4.14,4.14,0,0,1,418.74,922.41Z"/><path class="cls-1" d="M282.24,1080.19c.24-1,3.9-26.42,3.9-26.42l13.59,1L296,1081.21Z"/><path class="cls-14" d="M320.19,1087.43l-38-.1.08-11.68,26.27.07a11.7,11.7,0,0,1,11.69,11.71Z"/><path class="cls-15" d="M313.75,924.08l6.66,53,.47,2.72a10.2,10.2,0,0,1-.1,3.9l-17.25,81.83L283.19,1064l11.27-83,.36,6.62-12.67-51.56Z"/><path class="cls-1" d="M370.45,897.57a8.94,8.94,0,1,1-6.65-10.75A8.94,8.94,0,0,1,370.45,897.57Z"/><polygon class="cls-1" points="356.45 890.69 338.53 900.5 344.18 908.76 365.2 899.05 356.45 890.69"/><path class="cls-1" d="M305.91,824.56l-4.3-1.49-2,5.66,4.11.69,2.6-1.87A1.7,1.7,0,0,0,305.91,824.56Z"/><path class="cls-1" d="M304.07,833.43a18.13,18.13,0,1,1-14.92-20.85A18.14,18.14,0,0,1,304.07,833.43Z"/><g class="cls-24"><polygon class="cls-16" points="290.66 807.15 272.5 851.68 262.12 821.66 290.66 807.15"/></g><path class="cls-1" d="M283.23,831.58a5.08,5.08,0,1,1-4.18-5.84A5.07,5.07,0,0,1,283.23,831.58Z"/><path class="cls-16" d="M270.83,843.69a15.87,15.87,0,1,1-8.27-20.86A15.87,15.87,0,0,1,270.83,843.69Z"/><path class="cls-1" d="M294,845.62l1.79,25.11-16.44-9.35.62-15.33Z"/><path class="cls-13" d="M304.85,938.05a10.08,10.08,0,0,1-8.62-4.3l-32-45.64a10.1,10.1,0,0,1,2.47-14.06h0a10.1,10.1,0,0,1,14.07,2.48l26.67,38.06,39.13-22.52,10.08,17.5-47.14,27.14A10.07,10.07,0,0,1,304.85,938.05Z"/><rect class="cls-7" x="398.24" y="485.91" width="177.47" height="9.55" rx="1.04"/><rect class="cls-7" x="398.24" y="546.05" width="177.47" height="9.55" rx="1.04"/><rect class="cls-7" x="398.24" y="515.85" width="217.52" height="9.55" rx="1.04"/><path class="cls-7" d="M876.6,174H764.44s8.22-33.68,37.23-33.68c21.49,0,32.65,13.59,37,20.64,8.47-3.32,26.73-7.35,37.94,13"/><path class="cls-7" d="M1040.31,281.44a30.2,30.2,0,0,1,15.17,4.08,48.66,48.66,0,0,1,83.29-2.92c4.69-16.06,19.21-27.77,36.41-27.77,19.52,0,35.58,15.08,37.74,34.49a30.5,30.5,0,0,1,4.81-.42,30.86,30.86,0,0,1,27.4,17H1010.2A31.12,31.12,0,0,1,1040.31,281.44Z"/></svg>